<?xml version="1.0" encoding="utf-8"?>
<!-- Generator: Adobe Illustrator 22.1.0, SVG Export Plug-In . SVG Version: 6.00 Build 0)  -->
<svg version="1.1" id="Layer_1" xmlns="http://www.w3.org/2000/svg" xmlns:xlink="http://www.w3.org/1999/xlink" x="0px" y="0px"
	 viewBox="0 0 104 106" style="enable-background:new 0 0 104 106;" xml:space="preserve">
<style type="text/css">
	.st0{fill:#23A4FF;}
	.st1{fill:#FAFDFF;}
</style>
<g>
	
<g>
	<circle class="st0" cx="52" cy="54" r="37"/>
</g>
<path class="st1" d="M35,67L35,67c-2.2,0-4-1.8-4-4V45c0-2.2,1.8-4,4-4h0c2.2,0,4,1.8,4,4v18C39,65.2,37.2,67,35,67z"/>
<path class="st1" d="M47,67L47,67c-2.2,0-4-1.8-4-4V45c0-2.2,1.8-4,4-4h0c2.2,0,4,1.8,4,4v18C51,65.2,49.2,67,47,67z"/>
<path class="st1" d="M59,67L59,67c-2.2,0-4-1.8-4-4V45c0-2.2,1.8-4,4-4h0c2.2,0,4,1.8,4,4v18C63,65.2,61.2,67,59,67z"/>
<path class="st1" d="M71,67L71,67c-2.2,0-4-1.8-4-4V45c0-2.2,1.8-4,4-4h0c2.2,0,4,1.8,4,4v18C75,65.2,73.2,67,71,67z"/>
</svg>
